<svg width="500" height="500" xmlns="http://www.w3.org/2000/svg" viewBox="0 0 300 300"><path d="M207.999 254.567c-.745-3.497-1.581-7.039-2.545-10.508-1.029-3.701-2.178-7.323-3.444-10.75-1.266-3.427-2.633-6.642-4.125-9.543a54.925 54.925 0 00-2.325-4.102 37.572 37.572 0 00-2.48-3.51c-1.535-1.978-3.072-3.66-4.54-5.09s-2.869-2.606-4.103-3.532a30.073 30.073 0 00-3.137-2.084c-.301-.171-.532-.28-.768-.395-.228.473-.59.917-1.009 1.316-.42.4-.905.753-1.404 1.01-.498.256-1.003.416-1.47.46-.465.044-.884-.027-1.206-.263 1.38-1.115 2.24-2.073 2.742-2.852.503-.78.649-1.379.614-1.799-.034-.42-.248-.824-.636-1.207-.387-.382-.948-.742-1.667-1.075-.999-.46-2.169-.807-3.29-1.053a32.014 32.014 0 00-2.962-.482c.06.75.167 1.461.35 2.106.184.644.444 1.223.768 1.689.522.335.944.459 1.36.526.417.068.827.08 1.36.176-.901.734-1.819 1.37-2.741 1.93a22.98 22.98 0 01-2.786 1.448c-.933.405-1.856.744-2.787 1.01-.93.265-1.867.47-2.786.614-1.837.286-3.63.343-5.352.241a29.342 29.342 0 01-4.893-.724c-1.52-.353-2.932-.805-4.19-1.272s-2.351-.958-3.268-1.404c-1.835-.893-2.918-1.602-2.918-1.602.162-.199.797-.175 1.404-.241.303-.033.612-.079.833-.198a.662.662 0 00.373-.592c.193-1.155.298-2.273.308-3.335-.705.173-1.666.428-2.655.79-.989.362-2.005.832-2.852 1.404-.62.42-1.103.855-1.426 1.317-.322.461-.485.95-.46 1.491.024.543.265 1.243.855 2.084.59.842 1.527 1.824 2.962 2.94-.562.09-1.08.103-1.558.022a3.687 3.687 0 01-1.36-.526c-.444-.276-.879-.667-1.338-1.163a18.206 18.206 0 01-1.47-1.843c-.812.277-1.807.77-2.918 1.47-1.11.7-2.336 1.608-3.598 2.698a52.086 52.086 0 00-4.629 4.563 63.37 63.37 0 00-4.607 5.792c-1.379 1.993-2.685 4.163-3.905 6.472s-2.353 4.75-3.378 7.305-1.947 5.233-2.742 7.963a87.337 87.337 0 00-1.865 7.788c32.657 7.104 63.375 10.103 99.664 4.52z" fill="#ffe82e"/><path d="M194.459 69.277c.218 1.042.397 2.057.526 3.05.13.992.21 1.96.198 2.873-.018 1.356-.187 2.638-.549 3.818-.18.59-.418 1.158-.702 1.689s-.612 1.03-1.009 1.492l-.812.943-.833-.922c-.598-.655-1.589-1.49-2.852-2.325a27.103 27.103 0 00-4.476-2.37 23.896 23.896 0 00-5.067-1.491 18.63 18.63 0 00-2.655-.285 15.664 15.664 0 00-2.676.153c.066 1.075.01 2.33-.241 3.796-.252 1.465-.7 3.139-1.382 5.067l-.549 1.58-1.228-1.141c-1.65-1.516-3.069-2.86-4.388-3.993s-2.54-2.052-3.795-2.698a11.038 11.038 0 00-1.711-.702 10.013 10.013 0 00-1.843-.417 12.434 12.434 0 00-2.106-.066c-.752.037-1.552.145-2.435.307.225.47.456.96.658 1.492.37.971.698 2.05.921 3.225a19.43 19.43 0 01.33 3.817 20.336 20.336 0 01-.505 4.3c-.343 1.516-.884 3.11-1.646 4.76l-.57 1.25-1.097-.833c-1.253-.945-2.501-1.864-3.861-2.72a29.836 29.836 0 00-4.52-2.347c-1.676-.694-3.565-1.274-5.769-1.734-2.204-.459-4.714-.79-7.656-.943-1.541-.08-3.09-.25-4.607-.504a45.747 45.747 0 01-8.71-2.37 48.72 48.72 0 01-3.926-1.667 45.41 45.41 0 01-3.62-1.93 29.715 29.715 0 01-3.028-2.04c-.182.121-.425.303-.702.592s-.584.685-.877 1.206a7.144 7.144 0 00-.592 1.382 8.812 8.812 0 00-.351 1.865c-.061.709-.057 1.51.043 2.413.101.904.297 1.906.615 3.028l.68 2.347a10.344 10.344 0 012.896-2.26 9.406 9.406 0 013.225-.987c1.28-.204 2.664-.196 4.058.022 1.395.218 2.809.654 4.102 1.294.647.32 1.262.693 1.843 1.12.581.426 1.113.893 1.602 1.425a9.758 9.758 0 012.194 3.84 21.786 21.786 0 00-2.787-.44 19.488 19.488 0 00-2.61-.043c-1.668.076-3.212.359-4.63.811-1.416.453-2.706 1.055-3.882 1.755s-2.234 1.504-3.181 2.326a25.245 25.245 0 00-2.48 2.479c-.705.81-1.286 1.59-1.754 2.26-.936 1.338-1.404 2.259-1.404 2.259a10.143 10.143 0 01-1.01-2.282 10.905 10.905 0 01-.438-2.347c-.058-.783-.02-1.56.066-2.325.085-.765.221-1.517.417-2.238a16.499 16.499 0 011.601-3.861c.636-1.107 1.335-2.003 1.953-2.567l-2.106-1.382c-1.56-1.018-2.891-2.128-4.015-3.313s-2.04-2.443-2.786-3.751c-.147 1.185-.116 1.363-.395 2.984-.32 1.859-.726 3.858-1.25 5.725-.263.934-.546 1.843-.878 2.677a14.285 14.285 0 01-1.119 2.26c-.657 1.055-1.195 2.375-1.601 3.817-.406 1.442-.679 3.006-.834 4.519s-.177 2.99-.11 4.256c.068 1.266.226 2.321.44 2.961-.586.017-1.12-.036-1.624-.197a3.266 3.266 0 01-1.404-.878c.132 1.134.264 2.366.373 3.664.232 2.77.392 5.813.307 8.775-.043 1.481-.147 2.951-.33 4.344s-.448 2.713-.811 3.927c-.708 6.105-.987 9.17-.987 9.17h-2.172l-.154-1.667a3.73 3.73 0 01-.394 1.14c-.234.42-.535.808-.922 1.185a9.28 9.28 0 01-1.404 1.097h-.022v.022c-.519.33-1.067.524-1.601.592-.534.068-1.055.01-1.514-.197a2.672 2.672 0 01-1.097-.922c-.272-.39-.45-.849-.526-1.316a3.402 3.402 0 01.065-1.36c.111-.458.303-.916.593-1.338a4.88 4.88 0 011.14-1.163 5.925 5.925 0 011.646-.834c-.505-.44-.984-.86-1.47-1.228s-.97-.68-1.514-.922a5.638 5.638 0 00-1.82-.46 8.275 8.275 0 00-2.348.153c.154-.38.398-.692.702-.965s.678-.503 1.097-.658.881-.24 1.382-.263a6.082 6.082 0 011.58.131c.549.118 1.126.32 1.689.592a8.567 8.567 0 011.667 1.053c.543.44 1.069.961 1.558 1.58a12.2 12.2 0 011.338 2.15c-.108-1.2-.131-1.51-.263-3.05-.12-1.403-.23-2.718-.33-3.904a22.183 22.183 0 00-1.513-2.15c-.71-.894-1.608-1.884-2.676-2.765a11.67 11.67 0 00-2.194-1.447c-.78-.39-1.612-.675-2.457-.79a6.552 6.552 0 00-2.655.175c-.934.255-1.926.73-2.983 1.514a9.739 9.739 0 00-2.523 2.83 11.26 11.26 0 00-1.338 3.664c-.243 1.319-.27 2.71-.088 4.124a14.863 14.863 0 001.207 4.234 15.805 15.805 0 004.168 5.506c.627.537 1.299 1.05 2.04 1.514a18.69 18.69 0 002.413 1.25c.859.376 1.763.715 2.742.988.98.273 2.035.48 3.137.636 1.103.156 2.259.26 3.489.285a61.186 61.186 0 01-.22-6.56l2.194.045c-.065 3.174.09 6.054.439 8.665s.879 4.96 1.58 7.086A30.38 30.38 0 0089.968 166c.992 1.718 2.112 3.262 3.335 4.65s2.56 2.64 3.97 3.774 2.89 2.147 4.432 3.093c1.542.946 3.143 1.81 4.76 2.633 1.618.821 3.256 1.606 4.893 2.369 1.588.74 3.501 1.48 5.703 2.194a91.099 91.099 0 007.415 2.04c2.721.633 5.674 1.214 8.82 1.711 3.144.497 6.484.901 9.96 1.207 3.474.305 7.082.51 10.792.57 3.71.06 7.513-.021 11.364-.263 3.851-.242 7.751-.653 11.65-1.25 3.897-.599 7.798-1.383 11.648-2.392a40.304 40.304 0 005.31-1.777 35.059 35.059 0 004.562-2.303 32.794 32.794 0 003.905-2.743 32.127 32.127 0 003.269-3.093 33.552 33.552 0 002.72-3.356 36.558 36.558 0 002.216-3.554 39.781 39.781 0 001.733-3.62c.514-1.216.97-2.437 1.36-3.642.782-2.408 1.334-4.745 1.711-6.91s.569-4.153.68-5.836c.224-3.364.066-5.528.066-5.528.412.262.862 1.035 1.25 2.018.39.983.719 2.177.9 3.247.197.183.559.494 1.097.834.539.34 1.25.696 2.128.987.879.29 1.92.512 3.137.548 1.217.037 2.614-.102 4.168-.526a16.982 16.982 0 004.059-2.216 16.676 16.676 0 003.137-3.027 16.844 16.844 0 002.15-3.576c.562-1.254.965-2.55 1.207-3.861.241-1.31.323-2.644.24-3.927a13.875 13.875 0 00-.723-3.686 11.875 11.875 0 00-1.711-3.246 10.776 10.776 0 00-2.699-2.545c-1.232-.52-2.335-.83-3.312-.966-.978-.135-1.82-.1-2.589.066a6.324 6.324 0 00-2.062.856 8.485 8.485 0 00-1.624 1.382c-.49.525-.92 1.113-1.294 1.711a17.586 17.586 0 00-.965 1.777c-.534 1.122-.841 2.036-1.119 2.655l-.022.044c-.014.034-.26.61-.768 1.447a14.6 14.6 0 01-2.369 2.984l-1.36 1.316-.46-1.842c-.155-.619-.393-2.013-.68-4.19-.289-2.178-.6-5.045-.835-8.205s-.398-6.63-.35-10.048c.023-1.71.101-3.404.24-5.046.14-1.642.35-3.229.637-4.717.268-1.393.422-2.66.483-3.817a20.47 20.47 0 00-.066-3.137 15.87 15.87 0 00-.46-2.523 12.748 12.748 0 00-.681-1.93 9.994 9.994 0 00-1.185-1.997c-.414.764-1.042 1.55-1.952 2.26-.455.355-.976.71-1.58 1.009-.603.3-1.293.553-2.062.768l-1.667.46.307-1.71c.242-1.388.493-2.933.483-4.674-.005-.87-.07-1.793-.242-2.764a17.12 17.12 0 00-.855-3.071 19.274 19.274 0 00-1.492-3.05 27.186 27.186 0 00-2.347-3.312c-.948-1.155-2.075-2.355-3.379-3.598s-2.792-2.534-4.497-3.86zm-113.79 69.89a2.169 2.169 0 00-.395.066 4.22 4.22 0 00-1.185.504c-.305.194-.526.394-.68.615-.309.44-.363.91-.307 1.25.056.34.219.523.373.592.154.07.43.12 1.031-.263.863-.568 1.354-1.108 1.58-1.514.116-.386.211-.75.131-.987a.339.339 0 00-.263-.241.988.988 0 00-.285-.022zm87.993 52.783a145.96 145.96 0 01-11.32.548c-3.707.034-7.328-.079-10.837-.307.305 1.102.682 2.769.855 4.783a25.75 25.75 0 01.066 3.247 23.475 23.475 0 01-.417 3.62c.82.377 1.764.769 2.808 1.14 1.044.372 2.189.723 3.422 1.01a27.66 27.66 0 003.752.614 23.56 23.56 0 004.036.021c1.379-.112 2.775-.352 4.19-.767s2.842-1.008 4.257-1.8a7.194 7.194 0 01-.9-1.798 10.582 10.582 0 01-.483-2.018c-.188-1.38-.146-2.805-.043-4.125.127-1.637.384-3.114.614-4.168z" fill="#fccb8d"/><path d="M178.199 100.937c-.61-.002-1.193.05-1.755.132-1.13.164-2.176.495-3.137.965a10.174 10.174 0 00-2.611 1.843 12.18 12.18 0 00-2.084 2.654c-.593 1.021-1.077 2.178-1.47 3.444a24.615 24.615 0 00-.746 3.335 27.264 27.264 0 00-.307 3.247 31.753 31.753 0 00.373 5.923c.28 1.796.675 3.375 1.053 4.65.378 1.277.74 2.252.965 2.809a28.272 28.272 0 013.137-.044 29.32 29.32 0 014.103.46c1.484.273 3.062.672 4.694 1.273 1.633.6 3.32 1.401 5.002 2.435a28.689 28.689 0 012.523 1.733 30.267 30.267 0 012.48 2.15 40.343 40.343 0 004.672-6.296 32.007 32.007 0 001.645-3.137 24.474 24.474 0 001.602-4.739c.184-.824.319-1.654.394-2.5.076-.848.098-1.71.044-2.567a15.603 15.603 0 00-.373-2.567 15.12 15.12 0 00-.855-2.589c-.373-.86-.83-1.709-1.404-2.567a19.795 19.795 0 00-2.062-2.566c-.026-.022-.04-.044-.066-.066-1.538-1.312-3.038-2.438-4.475-3.378s-2.82-1.684-4.147-2.282c-1.326-.598-2.593-1.052-3.795-1.338a14.874 14.874 0 00-3.4-.417zM122.939 104.777c-.945.004-1.931.097-2.962.285s-2.098.478-3.203.9-2.255.961-3.422 1.667a27.281 27.281 0 00-3.576 2.61 14.283 14.283 0 00-1.865 1.91c-.52.646-.932 1.303-1.272 1.974-.34.67-.606 1.35-.79 2.04a11.39 11.39 0 00-.351 2.084c-.108 1.407.034 2.856.351 4.278.317 1.421.81 2.815 1.404 4.146a31.552 31.552 0 001.602 3.093 37.508 37.508 0 001.689 2.61 36.853 36.853 0 002.545 3.226 34.184 34.184 0 013.268-1.69 32.297 32.297 0 013.795-1.425 31.725 31.725 0 019.192-1.404c1.49-.006 3.037.086 4.651.307 1.614.22 3.294.57 5.024 1.053.134-1.985.165-3.822.11-5.529-.056-1.707-.194-3.293-.395-4.738s-.465-2.75-.768-3.95a30.945 30.945 0 00-1.01-3.246c-.757-2.03-1.58-3.562-2.303-4.673-.721-1.11-1.341-1.8-1.667-2.172-.11-.125-1.028-.894-2.347-1.557a16.784 16.784 0 00-2.304-.943 16.974 16.974 0 00-2.896-.68 17.246 17.246 0 00-2.5-.176z" fill="#fff"/><path d="M176.269 110.947c-.881 0-1.714.204-2.47.531a6.253 6.253 0 00-2 1.375 6.418 6.418 0 00-1.343 2.031 6.436 6.436 0 00-.469 2.47c0 .875.154 1.7.469 2.468a6.564 6.564 0 001.344 2.063 6.242 6.242 0 002 1.375c.755.329 1.588.53 2.469.53.88 0 1.717-.201 2.468-.53a6.227 6.227 0 002-1.375 6.504 6.504 0 001.313-2.063c.31-.767.469-1.593.469-2.469 0-.876-.158-1.703-.47-2.469a6.354 6.354 0 00-1.312-2.03 6.238 6.238 0 00-2-1.376 6.187 6.187 0 00-2.468-.531zm-51.688 3.219c-.842 0-1.623.156-2.344.469a6.04 6.04 0 00-1.906 1.343 6.12 6.12 0 00-1.75 4.313c0 .835.168 1.644.468 2.375.3.73.74 1.35 1.282 1.906a6.043 6.043 0 001.906 1.344c.721.313 1.502.5 2.344.5.841 0 1.624-.187 2.343-.5a6.032 6.032 0 001.907-1.344c.538-.556.983-1.176 1.28-1.906a6.3 6.3 0 00.47-2.375 6.3 6.3 0 00-.47-2.375 6.132 6.132 0 00-1.28-1.938 6.035 6.035 0 00-1.907-1.343 5.816 5.816 0 00-2.343-.47z" fill="#534528"/><path d="M180.239 112.137c.319.786.5 1.662.5 2.563s-.181 1.742-.5 2.53a6.64 6.64 0 01-1.375 2.094 6.366 6.366 0 01-2.032 1.438 6.284 6.284 0 01-6.53-.906c.32.758.748 1.45 1.312 2.031a6.514 6.514 0 002.062 1.437 6.3 6.3 0 002.531.532c.906 0 1.79-.193 2.563-.532a6.365 6.365 0 002.031-1.437 6.554 6.554 0 001.344-2.094c.32-.788.5-1.631.5-2.531 0-.9-.18-1.776-.5-2.563a6.545 6.545 0 00-1.344-2.093c-.169-.176-.374-.317-.562-.47zm-59.406 2.781c-.2.162-.415.314-.594.5-.577.599-1.024 1.339-1.344 2.125-.32.786-.5 1.631-.5 2.531 0 .9.18 1.743.5 2.532.32.788.767 1.523 1.344 2.125.577.6 1.29 1.099 2.062 1.437a6.284 6.284 0 005.063 0 6.515 6.515 0 002.062-1.437c.564-.582.991-1.273 1.313-2.032-.445.36-.908.645-1.438.875a6.45 6.45 0 01-2.562.532c-.906 0-1.76-.193-2.531-.532a6.277 6.277 0 01-2.032-1.406 6.78 6.78 0 01-1.375-2.125c-.32-.788-.468-1.631-.468-2.531 0-.9.149-1.745.468-2.531.007-.016.026-.047.032-.063z" fill="#766030"/><path d="M144.749 191.437l25.633-.379-.884 4.117c-5.653.916-15.831.33-23.612-2.12zM147.579 179.017c3.832 1.129 7.954 1.703 11.793.559-2.569 4.32-9.09 4.74-11.793-.559zM142.979 144.847c3.612 7.285 9.31 8.154 15.279 7.324-9.452 7.016-16.352-1.194-15.28-7.324zM66.079 126.787c-6.527 16.558 9.558 23.788 18.056 22.855l.378 2.652c-19.13-2.43-24.554-11.27-18.435-25.5zM238.059 126.917c6.526 16.558-11.2 28.334-20.33 21.339l.506 2.778c16.1 5.64 25.943-9.892 19.824-24.117zM86.965 125.897c.477-3.867 1.904-5.359 1.428-11.607l4.285-.18c-3.519-8.672 3.966-20.569 4.107-27.143l10.357 7.857c-1.87-2.99-3.51-11.82-.71-13.577 19.21 13.367 34.32 4.127 46.43 16.607.029-3.627 2.962-5.962 3.128-19.403 5.533-1.79 10.175 5.335 15.087 9.76 1.407-2.06 2.901-5.17 4.643-11.25 7.256-.548 11.594 3.13 16.198 6.921 1.399-.79 4.884-2.026 5.261-10.018 8.38 6.62 9.092 14.12 7.827 21.847 3.921.736 6.63-.897 7.857-2.678 3.104 3.197 2.067 14.086 3.036 21.25-.181-7.734 2.339-14.343-1.43-23.571l-5.54 1.78c-1.672-6.817.998-11.381-14.82-25.536l-2.5 13.75c-5.77-4.576-12.53-5.852-19.286-7.143l-2.14 9.469c-4.727-3.078-8.351-7.505-15.893-7.143l-2.5 17.679c-12.295-6.872-30.41-10.396-45.714-15.536-2.248 1.866-2.587 6.595-2.857 11.429l-8.397-7.86-6.072 28.393-3.393-3.036z" fill="#dd9e58"/><path d="M73.125 134.377c4.297-1.135 4.85 1.562 7.232 2.768l-3.661 3.75c.64-3.061.303-4.843-3.571-6.518zM229.309 132.537c-4.882-.583-6.45 3.75-6.854 5.861 1.316 3.065 3.005 2.941 4.987 2.677-4.176-2.05-.998-6.042 1.867-8.538z" fill="#dd9e58"/><path d="M185.959 85.327a5.452 5.452 0 00-1.937.375c-.75.285-1.548.778-2.345 1.5-.796.722-1.603 1.669-2.406 2.906 1.045-.225 2.267-.419 3.75-.375.844.025 1.76.141 2.719.344.958.203 1.952.489 3 .906s2.138.956 3.25 1.625 2.255 1.479 3.406 2.438a16.397 16.397 0 00-.906-2.438 17.646 17.646 0 00-1.313-2.344c-.506-.762-1.08-1.52-1.687-2.156a10.535 10.535 0 00-1.938-1.594 7.958 7.958 0 00-1.78-.875 5.732 5.732 0 00-1.813-.312zm-73.344 5.75a8.215 8.215 0 00-1.157.063 7.81 7.81 0 00-1.562.374 6.954 6.954 0 00-1.5.688c-.48.301-.929.672-1.375 1.125-.447.453-.903.996-1.313 1.625-.605.93-1.14 2.056-1.625 3.438-.484 1.381-.91 3.025-1.218 4.906a27.095 27.095 0 013.625-3.844 23.453 23.453 0 012.812-2.125 22 22 0 013.406-1.75c1.22-.5 2.506-.888 3.906-1.156 1.401-.27 2.893-.415 4.47-.375-1.32-.803-2.747-1.53-4.188-2.063a15.38 15.38 0 00-2.125-.625c-.718-.154-1.464-.268-2.156-.281z" fill="#766030"/><path d="M102.379 104.317s9.66-10.543 20.645-9.407c-4.483-3.157-17.867-.947-20.645 9.407z" fill="#534528"/><path d="M129.389 18.837c-.616.64-1.145 1.239-2.194 2.128-1.528 1.295-3.57 2.861-6.274 4.629-2.704 1.767-6.07 3.736-10.245 5.88a60.026 60.026 0 00-5.397 3.114 42.918 42.918 0 00-4.059 2.984 30.988 30.988 0 00-2.917 2.742 22.364 22.364 0 00-1.953 2.435c-1.032 1.488-1.552 2.695-1.82 3.51-.269.816-.286 1.141-.286 1.141l-.22 4.059-1.842-3.598s-1.047-2.23-1.865-4.059c-.664.616-1.146 1.173-1.47 1.69-.323.516-.487.992-.504 1.47-.022.606.124 1.337.329 2.215.205.878.47 1.902.68 3.137l.439 2.48-2.106-1.383a10.357 10.357 0 00-2.194-1.097 10.99 10.99 0 00-2.128-.504c-1.381-.202-2.657-.154-3.642-.066.954 1.14 1.973 2.396 3.225 3.707l1.777 1.865h-2.566c-1.27 0-2.57.261-3.774.614a27.545 27.545 0 00-3.203 1.185c.966.606 1.797 1.168 4.322 2.523l1.909 1.009-1.975.943a28.674 28.674 0 00-4.848 2.918 27.034 27.034 0 00-6.099 6.34 26.59 26.59 0 00-1.601 2.655c1.452-.527 2.772-1.002 5.923-2.238l3.203-1.25-1.887 2.873a21.708 21.708 0 00-1.623 2.962 29.014 29.014 0 00-1.25 3.334c-.727 2.327-1.246 4.85-1.58 7.46-.334 2.61-.474 5.299-.505 7.985-.03 2.686.058 5.365.242 7.92.307 4.275.821 8.129 1.316 11.187.494 3.06.969 5.323 1.206 6.384.15-.017.292-.034.44-.044a8.43 8.43 0 011.71.066 9.937 9.937 0 013.116.987 14.08 14.08 0 012.632 1.733c1.337 1.102 2.42 2.348 3.247 3.423h1.514c0-.183.012.214.043.614l.132 1.601c.007.086.01.2.022.308l.044.065-.022.022c.01.094.016.185.022.264.25-1.061.441-2.217.57-3.445.13-1.227.19-2.523.22-3.839a75.664 75.664 0 00-.264-7.875c-.444-5.296-1.175-9.443-1.228-9.74-.424-.841-.785-1.562-1.053-2.217-.268-.654-.443-1.244-.505-1.798.817.842 1.847 1.665 2.786 2.61.47.473.905.982 1.295 1.536.39.553.73 1.149.965 1.82.021-.812-.023-1.569.066-2.435.166-1.622.451-3.3.9-4.892.223-.795.48-1.566.789-2.303.309-.738.672-1.438 1.075-2.084.633-1.018 1.212-2.582 1.711-4.344.499-1.762.917-3.72 1.229-5.528.623-3.617.9-6.67.9-6.67a7.147 7.147 0 012.105 1.47c.548.552.975 1.146 1.426 1.8.451.652.93 1.363 1.536 2.083.605.721 1.339 1.461 2.347 2.216-.22-1.665-.187-3.11.022-4.344.21-1.233.595-2.255 1.053-3.07a7.85 7.85 0 011.82-2.195c-.859-.84-1.564-1.688-2.04-2.545.531-.017 1.196.251 1.975.68.78.43 1.679 1.017 2.655 1.668.976.65 2.038 1.37 3.159 2.018 1.12.648 2.296 1.227 3.51 1.645a45.545 45.545 0 003.73 1.58c1.306.487 2.686.936 4.08 1.316 1.393.38 2.814.7 4.256.944a38.02 38.02 0 004.343.482c2.81.146 5.265.46 7.46.9s4.135 1.007 5.857 1.667c1.721.66 3.236 1.41 4.629 2.216 1.392.806 2.653 1.665 3.86 2.544a21.743 21.743 0 001.141-3.904c.233-1.237.316-2.412.308-3.51a16.5 16.5 0 00-1.053-5.704c-.657-1.726-1.475-3.059-2.128-3.971s-1.141-1.404-1.141-1.404a6.597 6.597 0 011.733.241c.59.167 1.203.435 1.843.834a21.721 21.721 0 012.983-.417c.938-.062 1.82-.043 2.655.044.834.087 1.64.235 2.39.46.753.226 1.46.523 2.15.878 1.267.65 2.459 1.509 3.664 2.501 1.206.992 2.425 2.12 3.73 3.335.43-1.483.721-2.711.9-3.796s.251-2.025.219-2.917c-.033-.892-.17-1.75-.373-2.655s-.48-1.859-.812-2.983c0 0 .541.207 1.075.658.267.225.556.519.834.9.278.38.545.848.767 1.403.087.217.17.458.242.702 1.018-.152 2.04-.2 3.05-.175 1.009.024 2.002.117 2.983.285 1.96.335 3.847.928 5.572 1.645a25.603 25.603 0 013.97 2.062c1.158.74 2.156 1.52 2.984 2.26.369-.621.666-1.3.878-2.062.212-.763.338-1.612.35-2.567.017-1.192-.098-2.5-.328-3.905a42.494 42.494 0 00-1.01-4.475l-.833-2.984 2.523 1.8a67.33 67.33 0 015.792 4.584c1.666 1.484 3.085 2.928 4.277 4.322s2.173 2.734 2.962 4.037a22.845 22.845 0 011.843 3.773c.374.99.65 1.93.833 2.83.184.9.266 1.751.308 2.567.084 1.63-.057 3.106-.242 4.431.812-.378 1.416-.809 1.865-1.25.449-.442.741-.895.943-1.317.26-.54.372-1.001.417-1.338s.022-.548.022-.548c1.086.382 1.814.714 2.479 1.316.665.602 1.266 1.473 2.084 2.896.298.662.584 1.407.812 2.26.227.852.398 1.82.504 2.873s.13 2.202.066 3.466a29.798 29.798 0 01-.504 4.125 42.576 42.576 0 00-.593 4.475 70.61 70.61 0 00-.22 4.892c-.043 3.336.1 6.761.33 9.872.23 3.111.529 5.935.812 8.073.116.88.163.99.263 1.624.725-1.046 1.185-1.909 1.185-1.909l.022-.044v-.022c.162-.356.561-1.456 1.162-2.72.3-.632.665-1.328 1.097-2.018.432-.69.933-1.373 1.536-2.019a9.581 9.581 0 011.645-1.404 9.28 9.28 0 012.062-1.053 9.332 9.332 0 012.435-.504 11.064 11.064 0 012.83.153c.335-.77.705-1.89 1.075-3.268.371-1.378.743-3.015 1.097-4.783.81-4.041 1.564-8.894 2.216-13.58a557.128 557.128 0 001.602-12.636c.197-1.715.344-3.164.46-4.212s.176-1.601.22-1.887c.092-.601.327-1.185.658-2.062.33-.877.75-1.91 1.162-2.917.597-1.46.908-2.157 1.185-2.808-.22-.077-.165-.116-.526-.176a5.801 5.801 0 00-1.734-.022c-.672.092-1.432.31-2.281.724l-1.996.965.438-2.171c.14-.682.153-1.797.088-3.072a46.499 46.499 0 00-.395-4.014c-.06-.429-.068-.392-.131-.79-.388.943-.833 1.97-1.36 2.984a20.737 20.737 0 01-1.821 2.917l-1.207 1.602-.702-1.865a58.471 58.471 0 00-2.874-6.45 58.038 58.038 0 00-7.064-10.53c-1.26-1.495-2.54-2.864-3.817-4.102s-2.559-2.35-3.795-3.335-2.423-1.832-3.554-2.567a35.05 35.05 0 00-3.16-1.842c-.96-.488-1.82-.852-2.544-1.097l-1.075-.373.395-1.053c.202-.54.346-1.12.439-1.733a12.23 12.23 0 00.131-1.909 17.061 17.061 0 00-.526-3.949 15.133 15.133 0 00-1.909-4.431c-.335.295-.7.58-1.119.855-1.021.671-2.298 1.295-3.707 1.909-2.818 1.227-6.151 2.352-8.885 3.159l-2.26.658.922-2.15c.508-1.18.815-2.418.965-3.641s.143-2.432 0-3.532a9.568 9.568 0 00-.527-2.172 7.842 7.842 0 00-.811-1.558c-.277.227-.554.459-.922.724-1.02.735-2.392 1.606-3.97 2.545-1.58.938-3.362 1.919-5.222 2.852s-3.796 1.818-5.66 2.523a3.798 3.798 0 01-.307-1.624c.017-.52.145-1.021.307-1.58.326-1.115.823-2.397 1.075-4.167.204-1.407.162-1.894.176-2.633-.949.334-2.827.94-5.616 1.426-1.395.243-3.027.467-4.87.592s-3.903.161-6.187.066h-.066a42.817 42.817 0 00-7.546-.131 47.541 47.541 0 00-6.977.987 46.125 46.125 0 00-6.032 1.777c-1.806.667-3.378 1.384-4.673 2.106-.466-.572-.688-1.083-.746-1.602-.058-.519.045-1.05.197-1.623s.363-1.195.527-1.93a10.62 10.62 0 00.263-2.59z" fill="#766030"/><path d="M177.889 90.867s9.596-3.157 18.246 5.808c-.127-4.166-13.385-11.49-18.246-5.808z" fill="#534528"/><path d="M68.929 107.147s1.428-24.821 12.679-36.786c-4.286-.357-8.75 1.25-8.75 1.25s7.143-8.393 14.107-7.5c-3.572-2.683-6.786-3.754-6.786-3.754s3.75-2.5 9.643.357c-3.394-3.214-4.644-5.536-4.644-5.536s4.286 0 6.786 3.036c-.178-3.929-1.071-7.322-1.071-7.322s2.678 2.858 5 3.75c.714-5.357 0-13.393 15.536-20 12.32-6.428 13.75-9.464 13.75-9.464l-2.857 9.286s9.821-9.643 27.679-8.572c11.61.714 16.79-1.786 16.79-1.786s.893 7.858-2.322 11.071c7.857-.892 15.536-4.821 17.857-8.392-1.25 7.857 1.115 9.081-2.278 11.939 8.929-2.68 18.885-5.154 20.135-8.19 1.62 3.233 1.194 7.079-1.25 11.787 6.072 1.785 23.393 8.214 30.714 32.32 3.75-.892 5-4.285 5-4.285s.536 5.893-.536 7.857c3.93-2.321 5.893-2.321 5.893-2.321s-5.178 13.393-5.357 42.679c3.036-13.75 5.357-31.43 5.536-36.786 1.25-4.465 3.036-9.107 3.036-9.107l-5.54.179-2.32-9.464-3.93 7.143s-6.25-20.536-27.5-30.714c.714-5.893-2.857-13.93-2.857-13.93l-13.571 6.43c1.693-2.662-1.257-14.582-1.429-12.858-.095.957-15 8.572-15 8.572l1.071-10c-11.067 4.196-29.27 1.695-41.964 6.428v-7.5c-6.818 5.682-35.6 18.867-37.143 30.357l-2.5-5.357c-2.451 2.815-3.381 6.173-2.5 10.179l-11.07-1.966 4.642 5.715-8.572 3.393 5.893 3.392c-7.503 3.875-10.585 9.409-14.464 14.643l7.857-2.321s-8.035 17.679-3.392 32.143z" fill="#534528"/><path d="M108.749 244.287s17.138-32.19 29.464-36.429c.405-2.233-.323-6.158 7.67-5 .92-2.756.226-4.948.226-4.948s-9.325 2.27-9.86 6.912c-3.93 1.786-23.215 15.18-27.5 39.464zM207.129 248.427s-14.307-36.012-29.467-41.656c-.095-2.268-.979-4.287-7.54-5.378-.532-2.857.457-4.174.457-4.174s9.556 2.27 9.446 6.942c4.656 1.3 24.69 16.717 27.103 44.266zM143.819 247.727s16.5-1.3 19.843.666c-4.044.262-2.01 4.976-2.01 4.976-8.476-3.54-12.452-3.749-17.834-5.642z" fill="#bfa60e"/><path d="M130.969 13.117l-1.514 2.457s-.759 1.267-3.664 3.73c-2.905 2.462-7.898 6-16.124 10.222-8.414 4.32-12.813 8.66-15.115 11.978a16.52 16.52 0 00-1.58 2.83c-.527-1.096-.88-1.719-1.272-2.764l-.526-1.382-1.163.878c-2.694 2.043-3.793 3.902-3.86 5.813-.044 1.214.24 2.377.548 3.598-4.611-1.828-9.456-.746-9.456-.746l-1.777.395 1.163 1.382s1.859 2.148 3.378 3.883c-3.978.631-7.744 2.61-7.744 2.61l-1.645.856 1.558 1.031s2.406 1.429 4.607 2.699c-9.958 5.565-13.12 14.545-13.12 14.545l-.723 2.15 2.128-.746s3.18-1.2 5.77-2.172c-3.953 8.057-4.271 18.992-3.598 28.344.63 8.772 2.117 15.814 2.588 17.923a11.67 11.67 0 00-2.983 1.623c-5.098 3.78-6.298 11.192-3.423 17.528 2.794 6.156 9.537 11.331 20.205 11.474 1.089 8.33 4.052 14.35 8.03 18.867 5.257 5.97 12.186 9.31 18.757 12.373 6.926 3.23 19.2 6.352 33.74 7.525.227.667.775 2.47 1.009 5.2-1.44.315-4.356 1.098-6.625 2.632-1.362.92-2.6 2.226-2.83 3.927-2.256.603-4.86 2.283-7.7 4.738-3.142 2.715-6.498 6.405-9.566 10.75-6.135 8.69-11.1 20.014-10.245 31.35 2.122-11.349 6.505-22.128 12.022-30.1 2.969-4.204 6.253-7.776 9.236-10.355 2.523-2.18 4.892-3.615 6.516-4.168 2.105 2.967 3.477 3.867 5.726 3.51-2.87-2.231-3.77-3.94-3.818-5.024s.647-1.97 1.887-2.808c1.694-1.145 4.098-1.847 5.507-2.193a21.61 21.61 0 01-.308 3.334c-.04 1.138-2.286.634-2.61 1.031 0 0 4.296 2.867 10.377 4.278 6.08 1.411 14.128 1.357 21.346-4.519-1.068-.191-1.677-.031-2.72-.702-.65-.933-.997-2.295-1.12-3.795 1.532.186 4.256.613 6.253 1.535 1.439.665 2.235 1.442 2.304 2.282s-.597 2.422-3.357 4.65c1.288.947 4.174-.63 5.09-2.522.236.116.466.224.767.395a30.08 30.08 0 013.138 2.084c2.467 1.853 5.572 4.666 8.643 8.621 6.817 8.5 11.98 24.214 15.093 39.115-.717-19.23-6.959-32.208-13.36-40.453-3.2-4.122-6.448-7.076-9.06-9.038-1.307-.98-2.44-1.717-3.357-2.238a14.932 14.932 0 00-1.404-.724c0-.022.002-.043 0-.065-.164-2.01-1.823-3.272-3.576-4.08-2.519-1.164-5.63-1.63-7.195-1.8.009-.19.007-.381.022-.57.152-1.947.524-3.64.746-4.563 6.073-.636 12.22-1.682 18.274-3.269 15.94-4.178 23.335-15.447 26.61-25.536 1.322-4.07 1.993-7.962 2.326-11.166 2.023 1.263 5.942 2.915 11.32 1.448l.044-.022h.044c13.725-5.171 16.434-23.435 6.098-30.099l-.065-.044-.088-.044c-.352-.15-.691-.275-1.031-.395.817-1.941 1.486-4.783 2.172-8.204.824-4.114 1.582-8.98 2.237-13.69.656-4.71 1.205-9.261 1.602-12.701.198-1.72.366-3.164.483-4.212s.196-1.796.197-1.8c-.004.026.23-.758.548-1.6.318-.844.733-1.877 1.141-2.875.816-1.995 1.602-3.86 1.602-3.86l.373-.856-.79-.505s-.883-.548-2.216-.768c-.967-.16-2.284-.009-3.707.395.085-1.896-.057-4.053-.351-6.12-.522-2.657-2.212-4.265-2.984-5.024 0 0-1.286 4.143-3.225 7.458-3.543-8.483-8.481-15.143-13.404-19.92-4.87-4.724-9.568-7.605-12.943-8.95.677-2.558.476-5.367-.153-7.876-.713-2.839-1.85-5.242-3.225-6.56l-1.229-1.184-.548 1.602c-.04.113-.51.691-1.36 1.25-.851.559-2.04 1.172-3.379 1.755-2.094.912-4.5 1.677-6.757 2.391.558-2.124.798-4.27.549-6.186-.334-2.564-1.177-4.727-2.655-5.967l-1.14-.966-.549 1.273c-.044.053-.139.175-.263.285-.249.22-.647.515-1.119.855-.944.68-2.26 1.545-3.795 2.457-2.173 1.292-4.757 2.613-7.35 3.796.421-1.182.666-2.436.834-3.598.347-2.396.307-4.454.307-4.454l-.044-1.58-1.47.593s-6.91 2.831-17.286 2.413c-.022-.002-.044.002-.066 0-9.26-.997-17.79 1.115-23.627 3.708 1.23-3.699.548-7.415.548-7.415zm-1.58 5.726c.088 4.018-2.103 5.458-.241 7.744 5.18-2.887 14.959-5.86 25.229-4.739h.066c9.134.38 14.776-1.416 16.673-2.084-.015.74.028 1.227-.176 2.633-.504 3.54-2.03 5.095-1.075 7.37 3.727-1.408 7.723-3.497 10.881-5.374 1.579-.938 2.95-1.81 3.97-2.545.369-.265.645-.497.922-.724.573.861 1.123 2.076 1.338 3.73.287 2.2.052 4.814-.965 7.173l-.921 2.15 2.26-.658c2.733-.807 6.067-1.932 8.884-3.159 1.409-.613 2.686-1.237 3.708-1.909.418-.274.783-.56 1.119-.855a14.862 14.862 0 011.908 4.431c.64 2.546.767 5.429-.044 7.59l-.395 1.054 1.075.373c2.898.98 7.948 3.887 13.053 8.84 5.106 4.954 10.317 11.945 13.755 21.083l.702 1.864 1.207-1.601c1.368-1.81 2.406-4.016 3.18-5.901.064.397.072.361.133.79.37 2.607.586 5.723.307 7.085l-.44 2.172 1.997-.965c1.699-.83 3.065-.859 4.015-.702.362.06.307.1.526.175-.277.652-.587 1.348-1.184 2.808-.412 1.008-.832 2.041-1.163 2.918-.33.877-.565 1.46-.658 2.062-.044.285-.103.839-.22 1.887-.115 1.048-.262 2.497-.46 4.212-.396 3.43-.95 7.95-1.602 12.636-.652 4.685-1.405 9.538-2.215 13.58-.709 3.536-1.503 6.51-2.172 8.051-4.017-.729-7.04.742-8.973 2.808-1.206 1.29-2.031 2.773-2.632 4.037-.601 1.264-1 2.363-1.163 2.72v.022l-.022.044s-.46.863-1.184 1.908c-.1-.633-.147-.744-.264-1.623-.282-2.139-.58-4.962-.811-8.073-.462-6.223-.59-13.667.482-19.24 1.144-5.95.314-10.076-.877-12.724-1.636-2.846-2.392-3.448-4.563-4.212 0 0 .078.807-.44 1.887-.403.843-1.184 1.81-2.807 2.566.37-2.65.596-5.867-.9-9.828-1.826-4.835-6.026-10.429-14.874-16.717l-2.523-1.799.834 2.984c.87 3.132 1.37 5.995 1.338 8.38-.025 1.91-.491 3.386-1.228 4.629-1.656-1.48-3.96-3.076-6.954-4.322-3.45-1.435-7.533-2.363-11.605-1.755a7.966 7.966 0 00-.242-.702c-.444-1.11-1.067-1.852-1.601-2.303-.534-.451-1.075-.658-1.075-.658 1.33 4.497 1.784 6.42.065 12.35-2.61-2.43-4.861-4.533-7.393-5.835-2.762-1.42-5.93-1.844-10.179-.965-1.278-.797-2.428-1.06-3.576-1.075 0 0 1.956 1.924 3.27 5.375 1.216 3.196 1.743 7.657-.396 13.119-4.83-3.517-10.567-6.745-21.806-7.328-5.802-.3-11.687-2.063-16.41-4.321-4.856-1.676-9.175-6.08-11.298-6.011.476.856 1.18 1.705 2.04 2.544a7.85 7.85 0 00-1.82 2.194c-.916 1.632-1.516 4.084-1.075 7.415-4.035-3.019-3.839-5.901-7.415-7.568 0 0-.277 3.052-.9 6.669s-1.673 7.837-2.94 9.872c-1.61 2.587-2.43 6.034-2.764 9.28-.088.865-.044 1.621-.065 2.434-.94-2.687-3.413-4.281-5.046-5.967.123 1.109.71 2.334 1.558 4.015.053.297.784 4.445 1.228 9.74.421 5.023.473 10.915-.526 15.16-.007-.08-.012-.17-.022-.264l.022-.022-.044-.066c-.012-.108-.015-.222-.022-.307l-.132-1.601c-.031-.4-.044-.797-.044-.614H83.08c-.828-1.075-1.91-2.321-3.247-3.423-1.572-1.295-3.508-2.415-5.748-2.72a8.425 8.425 0 00-1.711-.066 8.88 8.88 0 00-.439.044c-.475-2.123-1.907-9.022-2.523-17.572-.735-10.216-.108-22.318 4.717-29.66l1.887-2.874-3.203 1.25c-3.151 1.236-4.471 1.711-5.924 2.238 1.602-3.04 5.187-8.41 12.548-11.912l1.975-.943-1.909-1.01c-2.525-1.354-3.356-1.916-4.322-2.522 1.78-.774 4.436-1.799 6.977-1.799h2.566l-1.777-1.865c-1.252-1.311-2.271-2.567-3.225-3.707 1.97-.176 5.059-.232 7.964 1.667l2.106 1.382-.439-2.479c-.42-2.47-1.052-4.139-1.009-5.353.034-.955.646-1.927 1.974-3.159a295.864 295.864 0 001.865 4.059l1.843 3.598.22-4.059s.016-.325.285-1.14c.268-.816.789-2.023 1.82-3.51 2.064-2.975 6.164-7.086 14.325-11.277 8.35-4.286 13.463-7.918 16.52-10.508 1.048-.889 1.577-1.488 2.193-2.128zm-24.527 73.624c-2.469 2.255-6.14 9.695-2.589 15.62 0 0 1.849-3.71 5.638-6.998 3.79-3.288 9.368-6.116 17.09-4.41-1.781-5.961-8.678-8.516-13.799-7.7-2.212.265-4.352 1.298-6.12 3.247l-.68-2.348c-1.27-4.485-.586-7.135.285-8.687.585-1.043 1.216-1.555 1.58-1.799 1.806 1.403 4.07 2.739 6.647 3.97 4.961 2.374 11.079 4.222 17.243 4.542 11.768.61 16.793 3.962 21.806 7.744l1.096.834.57-1.25c3.05-6.606 2.379-12.219.9-16.103a19.056 19.056 0 00-.658-1.492c3.534-.648 5.884-.26 8.095.878 2.512 1.292 4.884 3.66 8.183 6.69l1.229 1.142.548-1.58c1.365-3.856 1.756-6.714 1.623-8.863 3.526-.51 7.223.303 10.4 1.624 3.352 1.394 6.13 3.383 7.327 4.694l.833.922.812-.944c1.589-1.845 2.224-4.286 2.26-6.998.023-1.825-.287-3.84-.724-5.923 6.818 5.307 10.258 9.964 11.715 13.821 1.63 4.317 1.098 7.735.614 10.508l-.307 1.711 1.667-.46c3.076-.86 4.766-2.51 5.594-4.037.359.47.787 1.113 1.185 1.996 1.002 2.228 1.796 5.834.724 11.408-1.145 5.951-.996 13.49-.527 19.81.235 3.16.546 6.028.834 8.205.288 2.177.525 3.572.68 4.19l.46 1.843 1.361-1.316c2.186-2.09 3.11-4.362 3.137-4.432l.022-.044c.277-.618.585-1.532 1.119-2.654.542-1.141 1.278-2.439 2.26-3.488 1.95-2.086 4.656-3.42 9.586-1.338 8.508 5.593 6.442 21.445-5.66 26.084-6.217 1.695-9.744-1.112-10.53-1.843-.363-2.14-1.326-4.74-2.15-5.265 0 0 .672 8.64-2.457 18.274-3.128 9.634-9.902 20.11-25.075 24.088-30.798 8.072-64.643 2.108-77.353-3.817-6.548-3.053-13.163-6.315-18.055-11.868-4.891-5.554-8.181-13.431-7.92-26.128l-2.193-.044a61.185 61.185 0 00.22 6.559c-9.838-.195-15.566-4.839-17.99-10.179-2.514-5.541-1.374-11.8 2.743-14.852 2.114-1.568 3.946-1.92 5.638-1.69 1.69.23 3.284 1.113 4.65 2.239 2.138 1.76 3.63 3.998 4.19 4.914.1 1.186.21 2.501.33 3.905.132 1.54.155 1.848.263 3.049-3.212-6.479-9.773-6.649-11.007-3.614 3.569-.713 5.127.692 7.145 2.451-2.539.844-3.738 2.912-3.444 4.695.154.934.705 1.822 1.623 2.238.919.415 2.077.264 3.116-.395v-.022h.022c1.086-.708 1.858-1.441 2.325-2.282a3.73 3.73 0 00.395-1.14l.153 1.667h2.172s.28-3.065.987-9.17c1.454-4.856 1.299-11.506.834-17.046-.109-1.298-.24-2.53-.373-3.664.85.894 1.858 1.109 3.028 1.075-.427-1.28-.64-4.192-.33-7.217s1.121-6.226 2.436-8.337c1.658-2.663 2.606-6.944 3.246-10.662.28-1.62.249-1.798.395-2.983 1.493 2.615 3.683 5.027 6.8 7.064l2.107 1.382m81.06-9.324c-.243 0-.477.02-.723.044a7.373 7.373 0 00-1.953.46c-2.633 1.004-5.109 3.485-7.283 7.832l-1.514 3.05 3.006-1.58s2.083-1.11 5.506-1.009c3.423.102 8.093 1.435 13.185 6.647l1.843 1.865.044-2.632c.071-4.556-2.926-10.341-7.305-13.163-1.437-.926-3.098-1.51-4.805-1.514zm.045 2.194c1.222-.003 2.411.412 3.576 1.163 2.715 1.749 4.96 5.386 5.857 8.555-4.605-3.836-8.997-5.208-12.373-5.309-1.483-.044-2.707.149-3.751.373 1.606-2.474 3.241-3.839 4.738-4.41.48-.182.957-.302 1.426-.35.176-.018.352-.022.527-.022zm-73.338 5.748c2.769.052 5.829 1.355 8.468 2.961-6.304-.159-11.222 2.457-14.611 5.397a27.02 27.02 0 00-3.62 3.839c.618-3.762 1.641-6.478 2.852-8.336 1.638-2.515 3.582-3.536 5.748-3.796a8.367 8.367 0 011.162-.066zm65.594 7.656c-.712-.001-1.41.055-2.084.153-5.4.785-9.327 4.792-11.08 10.442h-.021c-2.748 9.141.008 17.82 1.184 20.863-.282.05-.438.088-.438.088l.504 2.128s14.952-3.703 25.887 10.815c.635-1.07-1.6-2.947-.22-3.707 1.442-1.568 4.6-5.297 6.78-10.113 1.453-3.211 2.481-6.93 2.237-10.837-.244-3.907-1.798-7.98-5.374-11.737l-.044-.044-.044-.044c-6.435-5.511-12.302-8-17.287-8.007zm-.022 2.194c4.268.015 9.666 2.166 15.817 7.415.026.021.04.044.066.065 3.206 3.398 4.482 6.88 4.694 10.29.215 3.432-.688 6.82-2.04 9.806-2.005 4.43-4.94 7.918-6.318 9.433-6.535-6.29-13.85-7.849-18.8-8.051a28.272 28.272 0 00-3.138.044c-.902-2.226-4.032-11.003-1.338-19.963 1.57-5.067 4.783-8.25 9.302-8.907a11.851 11.851 0 011.755-.132zm-55.262 1.645a19.47 19.47 0 00-1.01.044c-4.057.25-8.764 1.836-13.58 5.945-3.3 2.818-4.79 6.194-5.045 9.521-.255 3.327.667 6.578 1.953 9.455 1.899 4.25 4.656 7.693 5.967 9.214-2.477 2.282-3.575 3.83-3.774 6.055 0 0 12.531-14.499 33.214-7.788.337-.325.213-.636.461-1.207.765-8.858-.495-15.24-2.128-19.612-1.633-4.371-3.7-6.764-4.365-7.524-.549-.627-1.499-1.327-3.006-2.084a19.178 19.178 0 00-5.88-1.821 18.807 18.807 0 00-2.807-.198zm0 2.194a17.27 17.27 0 012.5.175c2.102.298 3.88.96 5.2 1.624 1.32.663 2.238 1.432 2.348 1.557.65.744 2.454 2.786 3.97 6.845 1.446 3.868 2.598 9.524 2.063 17.463-3.46-.967-6.697-1.372-9.675-1.36-6.807.026-12.285 2.184-16.256 4.519-.992-1.112-3.871-4.534-5.836-8.929-1.19-2.662-1.97-5.61-1.755-8.424.216-2.814 1.374-5.528 4.278-8.007 4.868-4.155 9.384-5.446 13.163-5.463zm53.33 4.014c-4.474 0-8.204 3.806-8.204 8.578s3.73 8.578 8.205 8.578 8.183-3.806 8.183-8.578-3.708-8.578-8.183-8.578zm0 2.326c3.439 0 6.1 2.835 6.1 6.252s-2.661 6.274-6.1 6.274-6.142-2.856-6.142-6.274 2.705-6.252 6.143-6.252zm-51.685.855c-4.331 0-7.942 3.692-7.942 8.315s3.61 8.292 7.942 8.292 7.941-3.669 7.941-8.292-3.61-8.315-7.941-8.315zm0 2.326c3.294 0 5.857 2.72 5.857 5.989s-2.563 5.989-5.857 5.989-5.88-2.72-5.88-5.99 2.586-5.988 5.88-5.988zm97.097 22.552c-.533 1.48-.306 3.296.987 4.848l.11.132.153.11c1.425.89 3.006.862 4.278.416s2.285-1.26 2.962-2.128c.338-.433.613-.868.746-1.382.133-.514.098-1.281-.46-1.777-1.486-1.334-4.53.987-4.646 2.081.353-.181 2.083-.45 2.342.025.296.545-1.016.89-1.668 1.119-.736.258-1.452.257-2.215-.154-.763-.988-.823-1.722-.527-2.544.313-.87 1.144-1.837 2.172-2.677 2.056-1.68 4.716-2.808 4.716-2.808-4.017-1.062-7.655 1.31-8.95 4.739zm-140.6 3.576c-.225.405-.717.945-1.58 1.513-.601.383-.877.333-1.03.264-.155-.07-.317-.253-.374-.593-.112-.68.187-1.836 2.172-2.369 1.214-.299 1.045.413.812 1.185zm62.084 2.961s-1.01 3.16.746 6.121c.878 1.48 2.452 2.844 4.958 3.686 3.881.964 9.097.46 10.486-1.448-4.551.433-7.686.09-9.785-.615-3.633-1.165-5.841-4.677-6.405-7.744zm26.347 14.764c-1.182.978-1.187 2.108-.965 3.664-6.417 3.681-12.744 4.157-17.77 3.73-2.605-.223-4.847-.703-6.56-1.098-.605-.139-1.063-.241-1.535-.35.484-1.098.421-2.672-.549-3.401-1.009 2.605-3.375 4.265-5.835 4.52.376 1.084 2.26 1.475 3.795 1.052.08.149.139.283.241.46.384.666.907 1.475 1.602 2.326 1.389 1.703 3.423 3.588 6.12 4.673 2.698 1.085 6.065 1.326 9.872-.197 3.664-1.466 7.728-4.543 12.22-9.894.945.777 2.184 1.403 3.773 1.645-2.378-2.2-4.276-3.543-4.41-7.13zm-4.431 7.722c-2.95 2.872-5.626 4.68-7.964 5.616-3.333 1.334-6.018 1.095-8.248.198-2.231-.897-3.996-2.512-5.222-4.015-.395-.485-.643-.89-.921-1.316.34.08.597.146 1.009.241 1.752.404 4.109.884 6.867 1.12 4.136.351 9.196.133 14.479-1.844zm-18.186 12.834s1.536 1.517 3.904 2.348c2.37.83 5.743.914 8.995-1.755-6.556 1.11-7.606.822-12.9-.593zm21.762 13.25a31.537 31.537 0 00-.615 4.169c-.206 2.638-.125 5.737 1.426 7.941-5.659 3.164-11.479 3.034-16.234 1.93a32.546 32.546 0 01-6.23-2.15c.99-4.983.107-9.445-.505-11.648 7.02.456 14.514.425 22.157-.242zm-25.69 56.073s3.43-.266 7.635-.329c3.54.266 8.736 2.642 11.123 6.165.32-2.778-2.854-5.236-4.585-6.055 1.235.077 2.417.193 3.488.351 2.232.328 3.969.991 4.453 1.47-4.799-6.28-17.27-4.526-22.113-1.602z" style="block-progression:tb;text-indent:0;text-transform:none" color="#000"/><path d="M165.089 165.867c-1.321.494-2.624.87-3.905 1.163a32.18 32.18 0 01-3.774.636 33.97 33.97 0 01-3.532.175 37.845 37.845 0 01-3.268-.131c-2.758-.235-5.115-.715-6.867-1.119-.412-.095-.669-.161-1.01-.241.279.425.527.831.922 1.316a15.35 15.35 0 002.238 2.238 11.773 11.773 0 002.983 1.777c.558.224 1.138.398 1.755.526.618.128 1.27.217 1.953.22.683.003 1.395-.069 2.15-.22.755-.15 1.558-.39 2.391-.724 1.17-.468 2.421-1.156 3.751-2.084 1.33-.928 2.738-2.096 4.213-3.532z" fill="#fff"/><path d="M175.339 112.917c-.952 0-1.72.767-1.72 1.719 0 .952.768 1.719 1.72 1.719s1.718-.767 1.718-1.72c0-.951-.766-1.718-1.718-1.718zm-49 3.063c-.952 0-1.72.766-1.72 1.718s.768 1.72 1.72 1.72 1.718-.768 1.718-1.72-.766-1.718-1.718-1.718z" fill="#ccbe8c"/><path d="M130.705 139.465c.308 1.948-3.275 4.407-8.003 5.491-4.727 1.084-8.809.384-9.117-1.565s3.276-4.406 8.003-5.49c4.728-1.085 8.81-.384 9.117 1.564zM186.198 144.548c-.943 1.732-5.282 1.498-9.691-.523-4.41-2.021-7.22-5.064-6.276-6.796s5.283-1.498 9.692.523 7.218 5.064 6.275 6.796zM155.466 148.806c.139 1.184-1.352 1.653-3.328 1.048-1.977-.604-3.691-2.053-3.83-3.237s1.353-1.652 3.33-1.048c1.976.605 3.69 2.054 3.828 3.237zM158.663 176.635c.46.7-.335 1.462-1.776 1.701-1.44.24-2.982-.134-3.443-.835s.335-1.462 1.776-1.701c1.44-.24 2.982.134 3.443.835zM233.668 126.995c.46.7-.335 1.462-1.776 1.701-1.44.24-2.982-.134-3.443-.835s.335-1.462 1.776-1.701c1.44-.24 2.982.134 3.443.835zM73 126.276c.695.47.254 1.478-.985 2.253-1.238.774-2.805 1.022-3.5.552s-.253-1.478.986-2.253c1.238-.775 2.805-1.022 3.5-.552z" fill="#fed9a2"/></svg>
