<svg width="58" height="55" viewBox="0 0 58 55" fill="none" xmlns="http://www.w3.org/2000/svg">
<path d="M28.9996 0.5C22.2323 0.500275 15.6858 2.86152 10.5317 7.16125C5.37748 11.461 1.9519 17.4186 0.867861 23.9681C-0.21618 30.5176 1.11206 37.2316 4.61492 42.9088C8.11778 48.586 13.5667 52.8558 19.9866 54.9544C21.4116 55.1989 21.946 54.3607 21.946 53.6271C21.946 52.9635 21.9103 50.7629 21.9103 48.4227C14.7497 49.715 12.8972 46.7112 12.3273 45.1394C11.6948 43.6107 10.6921 42.256 9.40602 41.1924C8.40853 40.6684 6.98354 39.3761 9.37037 39.3412C10.2818 39.4381 11.1559 39.7491 11.9187 40.2477C12.6814 40.7462 13.3104 41.4177 13.7522 42.2053C14.142 42.8918 14.6662 43.4962 15.2946 43.9839C15.9231 44.4715 16.6435 44.8327 17.4146 45.0469C18.1856 45.261 18.9922 45.3239 19.7882 45.2319C20.5841 45.1398 21.3536 44.8947 22.0527 44.5106C22.1761 43.09 22.8218 41.7618 23.8697 40.7733C17.5285 40.0747 10.9023 37.6645 10.9023 26.9763C10.8622 24.1992 11.9074 21.5122 13.8235 19.4666C12.9522 17.0529 13.0541 14.404 14.1085 12.0616C14.1085 12.0616 16.4953 11.3281 21.9459 14.9258C26.6093 13.6683 31.5324 13.6683 36.1958 14.9258C41.6464 11.2932 44.0333 12.0616 44.0333 12.0616C45.0878 14.404 45.1897 17.0529 44.3183 19.4666C46.2401 21.5087 47.2862 24.198 47.2395 26.9763C47.2395 37.6995 40.5776 40.0747 34.2365 40.7733C34.9166 41.4492 35.4404 42.2607 35.7724 43.1527C36.1043 44.0447 36.2366 44.9963 36.1602 45.9428C36.1602 49.6803 36.1246 52.6841 36.1246 53.6272C36.1246 54.3607 36.6589 55.2339 38.0839 54.9545C44.4926 52.8388 49.9258 48.5589 53.4137 42.8789C56.9017 37.1988 58.2173 30.4882 57.1257 23.9451C56.0342 17.4019 52.6065 11.452 47.4546 7.15751C42.3027 2.86302 35.7618 0.503451 28.9996 0.5Z" fill="white"/>
</svg>
