<svg width="56" height="53" viewBox="0 0 56 53" fill="none" xmlns="http://www.w3.org/2000/svg">
<path d="M51.4331 0.0435828H4.5669C4.04008 0.0365861 3.51698 0.128898 3.02747 0.315247C2.53796 0.501596 2.09163 0.778332 1.71398 1.12965C1.33632 1.48097 1.03473 1.89999 0.826436 2.36278C0.61814 2.82557 0.507216 3.32306 0.5 3.82685V49.1731C0.507216 49.6769 0.61814 50.1744 0.826436 50.6372C1.03473 51.1 1.33632 51.519 1.71398 51.8703C2.09163 52.2216 2.53796 52.4984 3.02747 52.6847C3.51698 52.8711 4.04008 52.9634 4.5669 52.9564H51.4331C51.9599 52.9634 52.483 52.8711 52.9725 52.6847C53.462 52.4984 53.9084 52.2216 54.286 51.8703C54.6637 51.519 54.9653 51.1 55.1736 50.6372C55.3819 50.1744 55.4928 49.6769 55.5 49.1731V3.82685C55.4928 3.32306 55.3819 2.82557 55.1736 2.36278C54.9653 1.89999 54.6637 1.48097 54.286 1.12965C53.9084 0.778332 53.462 0.501596 52.9725 0.315247C52.483 0.128898 51.9599 0.0365861 51.4331 0.0435828ZM17.1826 44.3316H8.8828V20.5208H17.1826V44.3316ZM13.0327 17.1873C12.4659 17.1873 11.9047 17.0806 11.3811 16.8732C10.8574 16.6658 10.3817 16.3618 9.9809 15.9785C9.58013 15.5953 9.26222 15.1403 9.04533 14.6395C8.82843 14.1388 8.7168 13.6021 8.7168 13.0601C8.7168 12.5181 8.82843 11.9815 9.04533 11.4807C9.26222 10.98 9.58013 10.525 9.9809 10.1418C10.3817 9.75852 10.8574 9.45451 11.3811 9.2471C11.9047 9.03969 12.4659 8.93294 13.0327 8.93294C13.6405 8.86702 14.256 8.92461 14.8389 9.10195C15.4219 9.27928 15.959 9.57236 16.4153 9.96199C16.8716 10.3516 17.2366 10.829 17.4866 11.3629C17.7365 11.8968 17.8657 12.4752 17.8657 13.0601C17.8657 13.6451 17.7365 14.2235 17.4866 14.7574C17.2366 15.2913 16.8716 15.7687 16.4153 16.1583C15.959 16.5479 15.4219 16.841 14.8389 17.0183C14.256 17.1957 13.6405 17.2533 13.0327 17.1873ZM47.1172 44.3316H38.8174V31.5532C38.8174 28.3519 37.6278 26.2619 34.6122 26.2619C33.6789 26.2684 32.7701 26.5484 32.0083 27.064C31.2466 27.5796 30.6683 28.3061 30.3516 29.1456C30.1351 29.7675 30.0413 30.4223 30.0749 31.0769V44.3051H21.7752C21.7752 44.3051 21.7752 22.6638 21.7752 20.4944H30.0749V23.8543C30.8289 22.6032 31.9255 21.5725 33.2467 20.8732C34.5678 20.174 36.0634 19.8326 37.5724 19.8859C43.1056 19.8859 47.1172 23.2988 47.1172 30.6272V44.3316Z" fill="white"/>
</svg>
