<svg width="400" height="400" viewBox="0 0 200 200" fill="none" xmlns="http://www.w3.org/2000/svg">
<g clip-path="url(#clip0_4_2)">
<rect width="200" height="200" fill="white"/>
<path d="M0 0H200V40H0V0Z" fill="#FAEA58"/>
<rect x="14" y="13" width="20" height="3" rx="1.5" fill="#6CB9E5"/>
<rect x="14" y="19" width="20" height="3" rx="1.5" fill="#6CB9E5"/>
<rect x="14" y="25.0001" width="20" height="3" rx="1.5" fill="#6CB9E5"/>
<path d="M26.91 88L24.66 78.34H26.265L27.9 85.585L29.73 79.51V78.34H31.065L33.12 85.585L34.785 78.34H36.375L34.14 88H32.535L30.6 81.235L28.545 88H26.91ZM37.4548 88V80.89H38.9548L39.0448 81.715C39.3848 81.495 39.7898 81.295 40.2598 81.115C40.7298 80.935 41.1948 80.81 41.6548 80.74V81.985C41.3748 82.035 41.0698 82.11 40.7398 82.21C40.4198 82.3 40.1148 82.405 39.8248 82.525C39.5348 82.635 39.2898 82.75 39.0898 82.87V88H37.4548ZM43.4454 79.405V78.055H45.2304V79.405H43.4454ZM43.5804 88V82.135H42.5004L42.6504 80.89H45.2154V88H43.5804ZM49.8377 88.15C49.0777 88.15 48.5077 87.95 48.1277 87.55C47.7577 87.14 47.5727 86.585 47.5727 85.885V82.165H46.5227V80.89H47.5727V79.255L49.1927 78.76V80.89H51.0827L50.9777 82.165H49.1927V85.795C49.1927 86.205 49.2877 86.495 49.4777 86.665C49.6677 86.825 49.9777 86.905 50.4077 86.905C50.6777 86.905 50.9627 86.855 51.2627 86.755V87.91C50.8727 88.07 50.3977 88.15 49.8377 88.15ZM56.1134 88.15C54.8734 88.15 53.9134 87.845 53.2334 87.235C52.5534 86.625 52.2134 85.69 52.2134 84.43C52.2134 83.29 52.5034 82.39 53.0834 81.73C53.6634 81.07 54.5434 80.74 55.7234 80.74C56.8034 80.74 57.6134 81.025 58.1534 81.595C58.7034 82.155 58.9784 82.88 58.9784 83.77V85.09H53.7734C53.8534 85.78 54.1034 86.255 54.5234 86.515C54.9434 86.775 55.5834 86.905 56.4434 86.905C56.8034 86.905 57.1734 86.87 57.5534 86.8C57.9334 86.73 58.2634 86.64 58.5434 86.53V87.73C58.2234 87.87 57.8534 87.975 57.4334 88.045C57.0234 88.115 56.5834 88.15 56.1134 88.15ZM53.7734 84.025H57.5384V83.53C57.5384 83.04 57.4034 82.66 57.1334 82.39C56.8634 82.11 56.4084 81.97 55.7684 81.97C55.0084 81.97 54.4834 82.135 54.1934 82.465C53.9134 82.795 53.7734 83.315 53.7734 84.025ZM67.192 88V84.415L63.727 78.34H65.422L68.002 83.035L70.582 78.34H72.277L68.812 84.415V88H67.192ZM75.8549 88.15C74.5749 88.15 73.6349 87.83 73.0349 87.19C72.4449 86.55 72.1499 85.635 72.1499 84.445C72.1499 83.255 72.4499 82.34 73.0499 81.7C73.6499 81.06 74.5849 80.74 75.8549 80.74C77.1349 80.74 78.0749 81.06 78.6749 81.7C79.2749 82.34 79.5749 83.255 79.5749 84.445C79.5749 85.635 79.2749 86.55 78.6749 87.19C78.0849 87.83 77.1449 88.15 75.8549 88.15ZM75.8549 86.77C76.6049 86.77 77.1349 86.59 77.4449 86.23C77.7649 85.86 77.9249 85.265 77.9249 84.445C77.9249 83.625 77.7649 83.035 77.4449 82.675C77.1349 82.315 76.6049 82.135 75.8549 82.135C75.1149 82.135 74.5849 82.315 74.2649 82.675C73.9549 83.035 73.7999 83.625 73.7999 84.445C73.7999 85.265 73.9549 85.86 74.2649 86.23C74.5849 86.59 75.1149 86.77 75.8549 86.77ZM83.7307 88.15C82.8807 88.15 82.2257 87.915 81.7657 87.445C81.3157 86.975 81.0907 86.285 81.0907 85.375V80.89H82.7257V85.375C82.7257 85.905 82.8557 86.295 83.1157 86.545C83.3757 86.795 83.7757 86.92 84.3157 86.92C84.7157 86.92 85.0857 86.845 85.4257 86.695C85.7657 86.545 86.0607 86.345 86.3107 86.095V80.89H87.9307V88H86.4457L86.3707 87.265C86.0507 87.515 85.6707 87.725 85.2307 87.895C84.7907 88.065 84.2907 88.15 83.7307 88.15ZM89.8376 88V80.89H91.3376L91.4276 81.715C91.7676 81.495 92.1726 81.295 92.6426 81.115C93.1126 80.935 93.5776 80.81 94.0376 80.74V81.985C93.7576 82.035 93.4526 82.11 93.1226 82.21C92.8026 82.3 92.4976 82.405 92.2076 82.525C91.9176 82.635 91.6726 82.75 91.4726 82.87V88H89.8376ZM98.6852 88V78.34H105.255V79.615H100.32V82.54H104.7V83.8H100.32V88H98.6852ZM106.932 79.405V78.055H108.717V79.405H106.932ZM107.067 88V82.135H105.987L106.137 80.89H108.702V88H107.067ZM110.609 88V80.89H112.109L112.199 81.715C112.539 81.495 112.944 81.295 113.414 81.115C113.884 80.935 114.349 80.81 114.809 80.74V81.985C114.529 82.035 114.224 82.11 113.894 82.21C113.574 82.3 113.269 82.405 112.979 82.525C112.689 82.635 112.444 82.75 112.244 82.87V88H110.609ZM118.296 88.15C117.806 88.15 117.336 88.115 116.886 88.045C116.446 87.975 116.081 87.89 115.791 87.79V86.41C116.131 86.54 116.506 86.64 116.916 86.71C117.326 86.78 117.716 86.815 118.086 86.815C118.646 86.815 119.046 86.765 119.286 86.665C119.526 86.565 119.646 86.37 119.646 86.08C119.646 85.87 119.571 85.705 119.421 85.585C119.281 85.465 119.066 85.355 118.776 85.255C118.496 85.155 118.136 85.035 117.696 84.895C117.276 84.755 116.911 84.605 116.601 84.445C116.291 84.275 116.051 84.06 115.881 83.8C115.711 83.54 115.626 83.2 115.626 82.78C115.626 82.13 115.861 81.63 116.331 81.28C116.801 80.92 117.556 80.74 118.596 80.74C119.006 80.74 119.396 80.77 119.766 80.83C120.136 80.89 120.451 80.965 120.711 81.055V82.42C120.431 82.31 120.121 82.225 119.781 82.165C119.451 82.105 119.141 82.075 118.851 82.075C118.331 82.075 117.936 82.12 117.666 82.21C117.406 82.3 117.276 82.48 117.276 82.75C117.276 83.03 117.411 83.23 117.681 83.35C117.961 83.46 118.406 83.615 119.016 83.815C119.576 83.985 120.021 84.165 120.351 84.355C120.681 84.545 120.916 84.775 121.056 85.045C121.206 85.305 121.281 85.645 121.281 86.065C121.281 86.765 121.026 87.29 120.516 87.64C120.006 87.98 119.266 88.15 118.296 88.15ZM125.38 88.15C124.62 88.15 124.05 87.95 123.67 87.55C123.3 87.14 123.115 86.585 123.115 85.885V82.165H122.065V80.89H123.115V79.255L124.735 78.76V80.89H126.625L126.52 82.165H124.735V85.795C124.735 86.205 124.83 86.495 125.02 86.665C125.21 86.825 125.52 86.905 125.95 86.905C126.22 86.905 126.505 86.855 126.805 86.755V87.91C126.415 88.07 125.94 88.15 125.38 88.15ZM134.017 88V79.615H130.927V78.34H138.727V79.615H135.652V88H134.017ZM140.837 88.15C140.387 88.15 139.967 88.07 139.577 87.91C139.197 87.75 138.892 87.51 138.662 87.19C138.432 86.86 138.317 86.455 138.317 85.975C138.317 85.295 138.547 84.75 139.007 84.34C139.477 83.92 140.197 83.71 141.167 83.71H143.447V83.395C143.447 83.055 143.392 82.785 143.282 82.585C143.182 82.385 142.992 82.24 142.712 82.15C142.442 82.06 142.042 82.015 141.512 82.015C140.672 82.015 139.887 82.14 139.157 82.39V81.175C139.477 81.045 139.867 80.94 140.327 80.86C140.787 80.78 141.282 80.74 141.812 80.74C142.852 80.74 143.642 80.95 144.182 81.37C144.732 81.79 145.007 82.475 145.007 83.425V88H143.612L143.507 87.28C143.217 87.56 142.857 87.775 142.427 87.925C142.007 88.075 141.477 88.15 140.837 88.15ZM141.272 86.98C141.762 86.98 142.187 86.9 142.547 86.74C142.917 86.57 143.217 86.345 143.447 86.065V84.82H141.197C140.717 84.82 140.367 84.915 140.147 85.105C139.937 85.285 139.832 85.565 139.832 85.945C139.832 86.315 139.957 86.58 140.207 86.74C140.457 86.9 140.812 86.98 141.272 86.98ZM149.19 88.15C148.7 88.15 148.23 88.115 147.78 88.045C147.34 87.975 146.975 87.89 146.685 87.79V86.41C147.025 86.54 147.4 86.64 147.81 86.71C148.22 86.78 148.61 86.815 148.98 86.815C149.54 86.815 149.94 86.765 150.18 86.665C150.42 86.565 150.54 86.37 150.54 86.08C150.54 85.87 150.465 85.705 150.315 85.585C150.175 85.465 149.96 85.355 149.67 85.255C149.39 85.155 149.03 85.035 148.59 84.895C148.17 84.755 147.805 84.605 147.495 84.445C147.185 84.275 146.945 84.06 146.775 83.8C146.605 83.54 146.52 83.2 146.52 82.78C146.52 82.13 146.755 81.63 147.225 81.28C147.695 80.92 148.45 80.74 149.49 80.74C149.9 80.74 150.29 80.77 150.66 80.83C151.03 80.89 151.345 80.965 151.605 81.055V82.42C151.325 82.31 151.015 82.225 150.675 82.165C150.345 82.105 150.035 82.075 149.745 82.075C149.225 82.075 148.83 82.12 148.56 82.21C148.3 82.3 148.17 82.48 148.17 82.75C148.17 83.03 148.305 83.23 148.575 83.35C148.855 83.46 149.3 83.615 149.91 83.815C150.47 83.985 150.915 84.165 151.245 84.355C151.575 84.545 151.81 84.775 151.95 85.045C152.1 85.305 152.175 85.645 152.175 86.065C152.175 86.765 151.92 87.29 151.41 87.64C150.9 87.98 150.16 88.15 149.19 88.15ZM153.778 88V77.89H155.413V83.74L158.398 80.89H160.273L157.378 83.755L160.438 88H158.713L156.358 84.625L155.413 85.525V88H153.778Z" fill="#FAEA58"/>
<path d="M0 190C0 173.431 13.4315 160 30 160H170C186.569 160 200 173.431 200 190V200H0V190Z" fill="#FAEA58"/>
<ellipse cx="172.5" cy="180" rx="11.5" ry="12" fill="#6CB9E5"/>
<path d="M175.663 181.037H168.954C168.725 181.037 168.535 180.839 168.535 180.6C168.535 180.361 168.725 180.162 168.954 180.162H175.663C175.892 180.162 176.082 180.361 176.082 180.6C176.082 180.839 175.892 181.037 175.663 181.037Z" fill="white"/>
<path d="M172.308 184.537C172.079 184.537 171.889 184.339 171.889 184.1V177.1C171.889 176.861 172.079 176.662 172.308 176.662C172.538 176.662 172.728 176.861 172.728 177.1V184.1C172.728 184.339 172.538 184.537 172.308 184.537Z" fill="white"/>
</g>
<defs>
<clipPath id="clip0_4_2">
<rect width="200" height="200" fill="white"/>
</clipPath>
</defs>
</svg>
