<svg width="50" height="53" viewBox="0 0 68 53" fill="none" xmlns="http://www.w3.org/2000/svg">
<path d="M67.4998 6.87885C64.9913 7.94253 62.3303 8.64044 59.6054 8.94929C62.4758 7.30699 64.6237 4.72266 65.649 1.67798C62.951 3.21042 59.9982 4.28925 56.9189 4.86761C55.0325 2.94627 52.5859 1.61133 49.8964 1.03595C47.2069 0.460575 44.3987 0.671314 41.836 1.64083C39.2733 2.61035 37.0744 4.29391 35.5245 6.47312C33.9746 8.65233 33.1452 11.2266 33.144 13.8621C33.1428 14.8704 33.2616 15.8755 33.4981 16.8581C28.0331 16.5963 22.6869 15.2383 17.8063 12.8725C12.9257 10.5067 8.61994 7.18589 5.16845 3.12562C3.41094 6.01921 2.87245 9.44446 3.66256 12.7043C4.45268 15.9642 6.51201 18.8136 9.42148 20.6728C7.23858 20.6081 5.10358 20.0447 3.19496 19.0296V19.1957C3.19539 22.2304 4.29344 25.1716 6.30291 27.5204C8.31238 29.8692 11.1096 31.4811 14.22 32.0827C13.0399 32.3905 11.8219 32.5454 10.5987 32.5434C9.7306 32.5435 8.8644 32.466 8.01136 32.3121C8.88976 34.923 10.5993 37.2062 12.901 38.8427C15.2027 40.4791 17.9816 41.3869 20.8492 41.4392C15.0855 45.755 7.76844 47.7114 0.499756 46.8801C6.78374 50.7433 14.0982 52.7944 21.5687 52.788C26.714 52.8219 31.8151 51.8777 36.5756 50.0103C41.3362 48.143 45.6612 45.3897 49.2996 41.9103C52.938 38.431 55.8172 34.2951 57.7699 29.7427C59.7226 25.1903 60.71 20.3122 60.6746 15.3919C60.6746 14.8216 60.6607 14.2549 60.6328 13.6918C63.3265 11.8286 65.6518 9.52159 67.4998 6.87885Z" fill="black"/>
</svg>
